<svg width="43" height="35" viewBox="0 0 43 35" fill="none" xmlns="http://www.w3.org/2000/svg">
<path fill-rule="evenodd" clip-rule="evenodd" d="M25.4663 4.03711L32.0458 8.21712L25.9677 9.89376L19.4609 5.75982L19.5059 5.68131L25.4663 4.03711Z" fill="#FF0000"/>
<path fill-rule="evenodd" clip-rule="evenodd" d="M35.3471 1.25781L41.9266 5.43785L35.8485 7.11446L29.3418 2.98056L29.3867 2.90204L35.3471 1.25781Z" fill="#FF0000"/>
<path fill-rule="evenodd" clip-rule="evenodd" d="M15.6928 6.8916L22.2723 11.0717L16.1942 12.7483L9.6875 8.61437L9.7324 8.53586L15.6928 6.8916Z" fill="#FF0000"/>
<path fill-rule="evenodd" clip-rule="evenodd" d="M6.25922 9.53027L12.8388 13.7103L6.7607 15.3869L0.253906 11.253L0.298831 11.1744L6.25922 9.53027Z" fill="#FF0000"/>
<path fill-rule="evenodd" clip-rule="evenodd" d="M0 14.1738L3.56471 16.4385L1.99941 16.8929L0 14.1738Z" fill="#FF0000"/>
<path fill-rule="evenodd" clip-rule="evenodd" d="M42.2278 2.71904L38.6631 0.454374L40.2284 0L42.2278 2.71904Z" fill="#FF0000"/>
<path d="M40.1389 18.3184H3.07862C1.49808 18.3184 0.216797 19.1875 0.216797 20.2596V29.0921C0.216797 30.1642 1.49808 31.0333 3.07862 31.0333H40.1389C41.7194 31.0333 43.0007 30.1642 43.0007 29.0921V20.2596C43.0007 19.1875 41.7194 18.3184 40.1389 18.3184Z" fill="#FF0000"/>
</svg>
